<svg width="21" height="20" viewBox="0 0 21 20" fill="none" xmlns="http://www.w3.org/2000/svg">
<mask id="mask0" mask-type="alpha" maskUnits="userSpaceOnUse" x="0" y="0" width="21" height="20">
<rect x="0.333374" width="20" height="20" fill="#C4C4C4"/>
</mask>
<g mask="url(#mask0)">
<path d="M10.3335 10.5046H6.58125V6.75229H10.3335V10.5046ZM11.5812 13.0092H5.33361V14.2569H11.5812V12.9998V13.0092ZM5.33361 5.50465V11.7522H11.5812V5.50465H5.33361ZM17.8381 13.0092H12.8382V14.2569H17.8381V12.9998V13.0092ZM12.8382 10.5046V11.7522H17.8381V10.5046H12.8382ZM12.8382 7.99992V9.24755H17.8381V7.99992H12.8382ZM12.8382 5.49527V6.75229H17.8381V5.50465H12.8382V5.49527ZM2.82896 14.876C2.82896 15.2137 2.55692 15.4951 2.21922 15.5045C2.05036 15.5045 1.89089 15.4388 1.76894 15.3169C1.64699 15.2043 1.58133 15.0448 1.58133 14.876V5.49527H2.82896V14.876ZM19.0764 14.876C19.067 15.2231 18.7949 15.4951 18.4479 15.5045H3.97341C4.03908 15.2981 4.0766 15.0917 4.0766 14.876V4.24763H19.0857V14.876H19.0764ZM20.3334 3H2.82896V4.24763H0.333694V14.876C0.324314 15.3732 0.521309 15.861 0.877776 16.208C1.22486 16.5645 1.71266 16.7615 2.20984 16.7521H18.4572C19.4891 16.7521 20.3334 15.9079 20.3334 14.876V3Z" fill="#666666"/>
</g>
</svg>
