<svg width="28" height="28" viewBox="0 0 28 28" fill="none" xmlns="http://www.w3.org/2000/svg">
<rect opacity="0.5" x="4" y="4" width="20" height="20" rx="10" fill="white"/>
<path d="M13.9122 11.1998C13.8288 11.1998 13.7454 11.2369 13.6898 11.2925L9.1951 15.7687C9.07462 15.8891 9.06536 16.0838 9.18583 16.2042L9.1951 16.2135L9.67701 16.6954C9.79749 16.8252 9.98284 16.8252 10.1126 16.7139L10.1218 16.7047L13.9122 12.905L17.7026 16.7047C17.8231 16.8252 18.0085 16.8344 18.1382 16.7139L18.1475 16.7047L18.6294 16.2228C18.7499 16.1023 18.7591 15.9169 18.6386 15.7872L18.6294 15.7779L14.1347 11.2832C14.0698 11.2276 13.9956 11.1998 13.9122 11.1998Z" fill="white"/>
</svg>
