<svg width="20" height="20" viewBox="0 0 20 20" fill="none" xmlns="http://www.w3.org/2000/svg">
<path d="M10 1C5.032 1 1 5.032 1 10C1 14.968 5.032 19 10 19C14.968 19 19 14.968 19 10C19 5.032 14.968 1 10 1ZM10 3.7C11.494 3.7 12.7 4.906 12.7 6.4C12.7 7.894 11.494 9.1 10 9.1C8.506 9.1 7.3 7.894 7.3 6.4C7.3 4.906 8.506 3.7 10 3.7ZM10 16.48C8.93067 16.48 7.87797 16.2154 6.93575 15.7097C5.99354 15.2041 5.1911 14.4731 4.6 13.582C4.627 11.791 8.2 10.81 10 10.81C11.791 10.81 15.373 11.791 15.4 13.582C14.8089 14.4731 14.0065 15.2041 13.0642 15.7097C12.122 16.2154 11.0693 16.48 10 16.48Z" fill="#666666"/>
</svg>
