<svg width="40" height="40" viewBox="0 0 40 40" fill="none" xmlns="http://www.w3.org/2000/svg">
<path fill-rule="evenodd" clip-rule="evenodd" d="M20 29.5C24.1375 29.5 27.5 26.1375 27.5 22H30C30 27.525 25.525 32 20 32C14.475 32 10 27.525 10 22C10 16.475 14.475 12 20 12V7L26.25 13.25L20 19.5V14.5C15.8625 14.5 12.5 17.8625 12.5 22C12.5 26.1375 15.8625 29.5 20 29.5ZM20.375 24.9C20.4625 24.85 20.5375 24.775 20.6 24.6875C20.6625 24.6 20.7125 24.5 20.7375 24.3875C20.7625 24.275 20.775 24.15 20.775 24C20.775 23.85 20.7625 23.7375 20.725 23.6125C20.6875 23.4875 20.625 23.3875 20.5625 23.3125C20.5 23.2375 20.4 23.1625 20.3 23.125C20.2 23.0875 20.075 23.0625 19.925 23.0625C19.8375 23.0625 19.7375 23.075 19.675 23.0875C19.6125 23.1 19.55 23.125 19.4875 23.15C19.425 23.175 19.3875 23.2 19.3375 23.2375C19.2875 23.275 19.25 23.3125 19.2125 23.35L18.375 23.1375L18.6875 20.425H21.675V21.3125H19.55L19.4125 22.4625C19.4312 22.4562 19.45 22.4469 19.4719 22.4359C19.4937 22.425 19.5187 22.4125 19.55 22.4C19.5812 22.3875 19.6125 22.3781 19.6437 22.3687C19.675 22.3594 19.7062 22.35 19.7375 22.3375C19.7931 22.3152 19.8686 22.3029 19.9374 22.2916C19.9459 22.2902 19.9543 22.2889 19.9625 22.2875C20.0375 22.275 20.125 22.2625 20.2125 22.2625C20.475 22.2625 20.7 22.3125 20.9 22.3875C21.1 22.4625 21.275 22.5875 21.4125 22.7375C21.55 22.8875 21.65 23.0875 21.725 23.3C21.8 23.5125 21.8375 23.775 21.8375 24.05C21.8375 24.2875 21.8 24.5125 21.725 24.725C21.65 24.9375 21.5375 25.125 21.3875 25.2875C21.2375 25.45 21.05 25.575 20.825 25.675C20.6 25.775 20.325 25.825 20.025 25.825C19.8 25.825 19.575 25.7875 19.3625 25.725C19.15 25.6625 18.95 25.5625 18.7875 25.425C18.625 25.2875 18.4875 25.1375 18.3875 24.9375C18.2875 24.7375 18.2375 24.525 18.225 24.275H19.275C19.3 24.4875 19.375 24.6625 19.5125 24.7875C19.65 24.9125 19.825 24.975 20.0375 24.975C20.1625 24.975 20.2875 24.95 20.375 24.9Z" fill="#00599A"/>
</svg>
