<svg width="40" height="40" viewBox="0 0 40 40" fill="none" xmlns="http://www.w3.org/2000/svg">
<path fill-rule="evenodd" clip-rule="evenodd" d="M20 7V12C25.525 12 30 16.475 30 22C30 27.525 25.525 32 20 32C14.475 32 10 27.525 10 22H12.5C12.5 26.1375 15.8625 29.5 20 29.5C24.1375 29.5 27.5 26.1375 27.5 22C27.5 17.8625 24.1375 14.5 20 14.5V19.5L13.75 13.25L20 7ZM18.675 20.4125L18.3625 23.125L19.2 23.325C19.2092 23.3158 19.2183 23.3059 19.2277 23.2957C19.2566 23.2645 19.2872 23.2314 19.325 23.2125C19.35 23.2 19.375 23.1844 19.4 23.1687C19.425 23.1531 19.45 23.1375 19.475 23.125C19.525 23.1 19.6 23.075 19.6625 23.0625C19.725 23.05 19.8125 23.0375 19.9125 23.0375C20.05 23.0375 20.1875 23.0625 20.2875 23.1C20.3875 23.1375 20.475 23.2 20.55 23.2875C20.625 23.375 20.675 23.4625 20.7125 23.5875C20.75 23.7125 20.7625 23.8375 20.7625 23.975C20.7625 24.1125 20.7625 24.2375 20.725 24.3625C20.6875 24.4875 20.6375 24.5875 20.5875 24.675C20.5375 24.7625 20.45 24.8375 20.3625 24.8875C20.275 24.9375 20.1625 24.9625 20.025 24.9625C19.8125 24.9625 19.6375 24.8875 19.5 24.775C19.3625 24.6625 19.2875 24.4875 19.2625 24.2625H18.2125C18.2125 24.5125 18.275 24.7375 18.375 24.925C18.475 25.1125 18.6 25.2875 18.775 25.4125C18.95 25.5375 19.1375 25.65 19.35 25.7125C19.5625 25.775 19.7875 25.8125 20.0125 25.8125C20.325 25.8125 20.5875 25.75 20.8125 25.6625C21.0375 25.575 21.225 25.4375 21.375 25.275C21.525 25.1125 21.6375 24.925 21.7125 24.7125C21.7875 24.5 21.825 24.275 21.825 24.0375C21.825 23.7625 21.775 23.5125 21.7125 23.2875C21.65 23.0625 21.5375 22.875 21.4 22.725C21.2625 22.575 21.0875 22.4625 20.8875 22.375C20.6875 22.2875 20.4625 22.25 20.2 22.25C20.1125 22.25 20.025 22.2625 19.95 22.275C19.9125 22.2812 19.875 22.2906 19.8375 22.3C19.8 22.3094 19.7625 22.3188 19.725 22.325C19.65 22.3375 19.5875 22.3625 19.5375 22.3875C19.5166 22.3979 19.4957 22.4062 19.4758 22.4141C19.4479 22.4251 19.4218 22.4354 19.4 22.45L19.5375 21.3H21.6625V20.4125H18.675Z" fill="#00599A"/>
</svg>
