<svg width="20" height="20" viewBox="0 0 20 20" fill="none" xmlns="http://www.w3.org/2000/svg">
<path fill-rule="evenodd" clip-rule="evenodd" d="M12.763 14.1875C13.1722 13.8176 13.7074 13.5815 14.3056 13.5815C15.5727 13.5815 16.6037 14.6125 16.6037 15.8796C16.6037 17.1468 15.5727 18.1778 14.3056 18.1778C13.0384 18.1778 12.0074 17.1468 12.0074 15.8796C12.0074 15.7065 12.031 15.5333 12.0704 15.3681L6.46667 12.094C6.04167 12.4875 5.48287 12.7315 4.86111 12.7315C3.55463 12.7315 2.5 11.6769 2.5 10.3704C2.5 9.06389 3.55463 8.00926 4.86111 8.00926C5.48287 8.00926 6.04167 8.25324 6.46667 8.64676L12.0153 5.41204C11.9759 5.23102 11.9444 5.05 11.9444 4.86111C11.9444 3.55463 12.9991 2.5 14.3056 2.5C15.612 2.5 16.6667 3.55463 16.6667 4.86111C16.6667 6.16759 15.612 7.22222 14.3056 7.22222C13.6838 7.22222 13.125 6.97824 12.7 6.58472L7.15139 9.81945C7.19074 10.0005 7.22222 10.1815 7.22222 10.3704C7.22222 10.5593 7.19074 10.7403 7.15139 10.9213L12.763 14.1875ZM15.0926 4.86111C15.0926 4.42824 14.7384 4.07407 14.3056 4.07407C13.8727 4.07407 13.5185 4.42824 13.5185 4.86111C13.5185 5.29398 13.8727 5.64814 14.3056 5.64814C14.7384 5.64814 15.0926 5.29398 15.0926 4.86111ZM4.86111 11.1574C4.42824 11.1574 4.07407 10.8032 4.07407 10.3704C4.07407 9.9375 4.42824 9.58333 4.86111 9.58333C5.29398 9.58333 5.64814 9.9375 5.64814 10.3704C5.64814 10.8032 5.29398 11.1574 4.86111 11.1574ZM13.5185 15.8954C13.5185 16.3283 13.8727 16.6824 14.3056 16.6824C14.7384 16.6824 15.0926 16.3283 15.0926 15.8954C15.0926 15.4625 14.7384 15.1084 14.3056 15.1084C13.8727 15.1084 13.5185 15.4625 13.5185 15.8954Z" fill="#666666"/>
</svg>
