<svg width="21" height="20" viewBox="0 0 21 20" fill="none" xmlns="http://www.w3.org/2000/svg">
<mask id="mask0" mask-type="alpha" maskUnits="userSpaceOnUse" x="0" y="0" width="21" height="20">
<rect x="0.666626" width="20" height="20" fill="#C4C4C4"/>
</mask>
<g mask="url(#mask0)">
<path d="M18.0303 3.40909C17.1221 3.12273 16.1239 3 15.1666 3C13.5712 3 11.853 3.32727 10.6666 4.22727C9.48026 3.32727 7.76208 3 6.16663 3C4.57117 3 2.85299 3.32727 1.66663 4.22727V16.2136C1.66663 16.4182 1.87117 16.6227 2.07572 16.6227C2.15754 16.6227 2.19844 16.5818 2.28026 16.5818C3.38481 16.05 4.98026 15.6818 6.16663 15.6818C7.76208 15.6818 9.48026 16.0091 10.6666 16.9091C11.7712 16.2136 13.7757 15.6818 15.1666 15.6818C16.5166 15.6818 17.9075 15.9273 19.053 16.5409C19.1348 16.5818 19.1757 16.5818 19.2575 16.5818C19.4621 16.5818 19.6666 16.3773 19.6666 16.1727V4.22727C19.1757 3.85909 18.6439 3.61364 18.0303 3.40909ZM18.0303 14.4545C17.1303 14.1682 16.1484 14.0455 15.1666 14.0455C13.7757 14.0455 11.7712 14.5773 10.6666 15.2727V5.86364C11.7712 5.16818 13.7757 4.63636 15.1666 4.63636C16.1484 4.63636 17.1303 4.75909 18.0303 5.04545V14.4545Z" fill="#666666"/>
</g>
</svg>
