<svg width="14" height="8" viewBox="0 0 14 8" fill="none" xmlns="http://www.w3.org/2000/svg">
<path d="M7.12534 8C7.24449 8 7.36364 7.94704 7.44308 7.86761L13.8641 1.47306C14.0362 1.30095 14.0495 1.02292 13.8773 0.850812L13.8641 0.837572L13.1757 0.149133C13.0036 -0.0362167 12.7388 -0.0362173 12.5534 0.122653L12.5402 0.135893L7.12534 5.56398L1.71049 0.135893C1.53838 -0.0362175 1.2736 -0.0494571 1.08825 0.122653L1.07501 0.135893L0.386566 0.824333C0.214456 0.996443 0.201217 1.26123 0.373326 1.44658L0.386566 1.45982L6.80759 7.88085C6.90027 7.96028 7.00618 8 7.12534 8Z" fill="#00599A"/>
</svg>
