<svg width="32" height="32" viewBox="0 0 32 32" fill="none" xmlns="http://www.w3.org/2000/svg">
<rect width="32" height="32" rx="16" fill="#00599A"/>
<path fill-rule="evenodd" clip-rule="evenodd" d="M19.491 16.1937C19.491 15.2256 18.8993 14.3971 18.0585 14.0462L17.6111 15.1203C18.0318 15.2954 18.3273 15.7097 18.3273 16.1937C18.3273 16.6778 18.0318 17.0921 17.6117 17.2678L18.0591 18.3418C18.8993 17.991 19.491 17.1619 19.491 16.1937ZM18.954 11.897L18.506 12.9722C19.7679 13.4982 20.6546 14.7415 20.6546 16.1937C20.6546 17.6459 19.7679 18.8893 18.5065 19.4153L18.9545 20.4905C20.636 19.7888 21.8182 18.13 21.8182 16.1937C21.8182 14.2574 20.636 12.5987 18.954 11.897ZM10.1819 13.2846V19.1028H12.5092L16.5819 23.1755V9.21191L12.5092 13.2846H10.1819Z" fill="white"/>
</svg>
